<svg width="16" height="20" viewBox="0 0 16 20" fill="none" xmlns="http://www.w3.org/2000/svg">
<path d="M7.99514 0.00732498C5.9157 0.00641997 3.91785 0.81619 2.42562 2.2644C0.933384 3.71262 0.064273 5.68539 0.00292969 7.76393V17.3264C0.00292969 17.6763 0.0719581 18.0231 0.205857 18.3464C0.339756 18.6696 0.536006 18.9634 0.783419 19.2108C1.03083 19.4582 1.32455 19.6544 1.64781 19.7883C1.97107 19.9222 2.31743 19.9908 2.66733 19.9908C3.01722 19.9908 3.36382 19.9222 3.68708 19.7883C4.01034 19.6544 4.30406 19.4582 4.55148 19.2108C4.79889 18.9634 4.99514 18.6696 5.12904 18.3464C5.26294 18.0231 5.33172 17.6763 5.33172 17.3264V17.2215C3.72558 16.7582 2.26953 15.8812 1.10903 14.6781C0.961448 14.5259 0.880384 14.3213 0.883663 14.1093C0.886942 13.8973 0.974128 13.6954 1.12635 13.5478C1.27857 13.4003 1.48338 13.3192 1.69537 13.3225C1.90736 13.3258 2.10925 13.4132 2.25684 13.5654C2.26783 13.5774 2.28073 13.588 2.29171 13.601L2.36976 13.6791L2.38659 13.6961L2.45952 13.7659L2.50367 13.8078L2.53367 13.8361L2.63342 13.9249L2.6405 13.9317C3.42081 14.6395 4.33436 15.1846 5.32782 15.5352C6.68688 16.0147 8.15021 16.1183 9.56319 15.8347C10.9762 15.551 12.2862 14.8908 13.3549 13.9239C13.4701 13.82 13.5825 13.7119 13.6917 13.6C14.7951 12.4768 15.542 11.0526 15.8388 9.50637C16.1357 7.9601 15.9692 6.36079 15.3603 4.9088C14.7513 3.4568 13.7271 2.21686 12.4161 1.34489C11.1051 0.472914 9.56575 0.00757203 7.99124 0.00732498H7.99514Z" fill="white"/>
</svg>
